<?xml version="1.0" encoding="UTF-8" standalone="no"?>
<svg
   viewBox="0 0 515.94318 500"
   version="1.1"
   id="svg2"
   sodipodi:docname="thrust-bend.svg"
   inkscape:version="1.3.2 (091e20e, 2023-11-25, custom)"
   width="515.94318"
   height="500"
   xmlns:inkscape="http://www.inkscape.org/namespaces/inkscape"
   xmlns:sodipodi="http://sodipodi.sourceforge.net/DTD/sodipodi-0.dtd"
   xmlns="http://www.w3.org/2000/svg"
   xmlns:svg="http://www.w3.org/2000/svg">
  <defs
     id="defs2" />
  <sodipodi:namedview
     id="namedview2"
     pagecolor="#ffffff"
     bordercolor="#000000"
     borderopacity="0.25"
     inkscape:showpageshadow="2"
     inkscape:pageopacity="0.0"
     inkscape:pagecheckerboard="0"
     inkscape:deskcolor="#d1d1d1"
     inkscape:zoom="1.6310412"
     inkscape:cx="307.16575"
     inkscape:cy="283.5612"
     inkscape:window-width="3440"
     inkscape:window-height="1377"
     inkscape:window-x="-8"
     inkscape:window-y="-8"
     inkscape:window-maximized="1"
     inkscape:current-layer="svg2" />
  <g
     class=""
     transform="matrix(0.79412122,0.21278414,-0.21278414,0.79412122,106.12909,-14.599452)"
     style="fill:#000000"
     id="g2"
     inkscape:label="Exhaust">
    <ellipse
       style="fill:#808080;stroke-width:0.400112"
       id="path3"
       cx="273.29922"
       cy="267.16696"
       rx="257.97159"
       ry="250"
       transform="matrix(1.1748996,-0.3148134,0.3148134,1.1748996,-143.50775,35.21964)" />
    <path
       d="m 133.86378,26.562184 c -25.26409,0 -47.729066,5.606968 -64.954831,19.278453 C -45.152135,136.3673 86.369338,482.35037 86.369338,482.35037 l 297.146852,23.86179 c 0,0 -322.080288,-238.99561 -235.13846,-390.52997 39.57397,-68.97399 206.05333,30.94636 258.03945,64.4965 -15.08905,13.42049 -39.66454,23.51696 -68.39561,38.99669 46.67816,8.05251 117.8107,-6.62949 145.21805,-21.63452 C 465.0077,137.80778 438.20819,89.599646 391.80502,62.364713 405.59545,92.33438 416.02804,117.31038 417.17497,139.71751 387.63635,120.5591 237.48792,26.563275 133.86378,26.562184 Z"
       fill="#fff"
       fill-opacity="1"
       id="path2"
       style="fill:#000000;stroke-width:1.09127"
       sodipodi:nodetypes="ccccccccccc" />
  </g>
</svg>
