<?xml version="1.0" encoding="UTF-8" standalone="no"?>
<!-- Created with Inkscape (http://www.inkscape.org/) -->

<svg
   width="60.571205mm"
   height="60.571213mm"
   viewBox="0 0 60.571205 60.571213"
   version="1.1"
   id="svg1"
   inkscape:version="1.3.2 (091e20e, 2023-11-25, custom)"
   sodipodi:docname="fey.svg"
   xmlns:inkscape="http://www.inkscape.org/namespaces/inkscape"
   xmlns:sodipodi="http://sodipodi.sourceforge.net/DTD/sodipodi-0.dtd"
   xmlns="http://www.w3.org/2000/svg"
   xmlns:svg="http://www.w3.org/2000/svg">
  <sodipodi:namedview
     id="namedview1"
     pagecolor="#ffffff"
     bordercolor="#000000"
     borderopacity="0.25"
     inkscape:showpageshadow="2"
     inkscape:pageopacity="0.0"
     inkscape:pagecheckerboard="0"
     inkscape:deskcolor="#d1d1d1"
     inkscape:document-units="mm"
     inkscape:zoom="1.0520974"
     inkscape:cx="373.53957"
     inkscape:cy="234.29391"
     inkscape:window-width="1720"
     inkscape:window-height="1377"
     inkscape:window-x="-8"
     inkscape:window-y="-8"
     inkscape:window-maximized="0"
     inkscape:current-layer="layer1" />
  <defs
     id="defs1" />
  <g
     inkscape:label="Layer 1"
     inkscape:groupmode="layer"
     id="layer1"
     transform="translate(-6.3499991,-86.518749)">
    <g
       id="g3-3-9"
       transform="matrix(0.4457982,0,0,0.43526768,12.654116,94.84241)"
       inkscape:label="Fey"
       style="display:inline">
      <ellipse
         style="fill:#abc837;stroke-width:0.72763"
         id="path3-9-3"
         cx="53.794487"
         cy="50.456184"
         rx="67.935677"
         ry="69.579269"
         inkscape:label="Circle" />
      <g
         id="g4"
         inkscape:label="Deer"
         transform="matrix(0.11066395,0,0,0.11334128,-1.6178965,-2.5549932)">
        <path
           d="m 367.55597,665.77069 c -7.86847,-5.52307 -9.02036,-14.96777 -10.76419,-23.68256 -2.12952,-10.64215 -3.39789,-22.26757 -8.65518,-31.92578 -19.71695,1.16822 -37.09473,1.32032 -55.92087,-5.5011 -14.97571,-5.42633 -28.62955,-14.02746 -39.9409,-25.24511 -11.95658,-11.85755 -20.47825,-26.04645 -27.85369,-41.06543 -4.35705,-8.8725 -8.49086,-17.8598 -13.14001,-26.586 -4.47318,-8.3959 -10.97849,-16.08481 -14.46343,-24.85254 67.11287,5.97455 129.77233,20.55203 178.23806,72.57312 4.1661,-8.2937 9.21899,-16.28192 15.00738,-24.63672 C 363.45511,494.90866 309.18671,478.69769 266.50763,462.69135 222.94603,446.35403 179.18112,431.8194 145.81688,397.84994 116.32691,367.82495 98.44104,329.11728 86.786064,289.13431 72.784676,241.1019 67.43512,189.28575 73.43148,139.49486 76.189575,116.59311 82.979187,94.141296 95.06974,74.392616 106.86794,55.121483 124.9848,33.912826 147.33571,27.131695 105.12454,85.680076 99.201538,150.65626 111.7226,218.99717 119.03246,175.61483 132.97781,133.16374 156.27388,95.65279 179.41687,58.388302 212.16615,21.498829 254.88609,7.2941169 176.05806,81.270756 151.55673,174.84793 149.06354,276.41628 c 2.78071,2.80902 13.8725,-12.47232 16.60002,-15.26544 6.7072,-6.86858 13.90401,-13.24614 21.48863,-19.13011 14.77077,-11.45882 30.93149,-21.0125 47.74881,-29.13723 7.70865,-3.72419 13.54233,-5.30519 16.37763,-13.88397 2.98387,-9.02821 5.63336,-18.06656 9.35491,-26.84373 6.6872,-15.77144 16.6984,-37.64687 31.2529,-47.70366 -7.62683,23.10283 -14.5845,46.24798 -17.43795,71.48001 35.13275,-10.54019 70.24713,-16.89968 106.53927,-13.17073 -36.94797,14.086 -73.63687,28.36142 -108.92376,47.07159 -5.39197,44.38786 -2.17447,93.67284 12.14581,136.17195 6.65573,19.75257 16.26105,38.31537 29.29416,54.62531 13.44214,16.82174 30.94986,23.95715 50.73919,30.97119 2.93857,-51.28592 17.91608,-97.53699 53.59186,-137.43729 -6.32129,39.33344 -13.64425,78.61481 -13.92639,118.58997 -0.12064,17.09555 4.12149,30.69467 18.32538,41.22 12.35184,9.1528 31.8876,12.55704 36.61014,29.20944 27.35434,-2.07055 54.55813,-2.28842 82.27005,0.0216 4.71008,-15.42664 20.83148,-18.68546 33.09912,-26.03778 13.09155,-7.8461 21.92761,-19.46564 23.38385,-34.92041 1.89453,-20.10788 -1.62482,-41.59867 -4.1626,-61.53159 -2.76306,-21.70166 -6.54242,-43.2547 -9.97552,-64.85592 34.01226,38.70742 50.28277,84.39434 52.88378,136.05847 19.02002,-6.04798 36.85608,-14.23551 49.82081,-29.9173 13.42803,-16.24222 23.44226,-35.14255 30.25994,-55.03937 15.00501,-43.79068 15.6203,-91.38031 11.82007,-137.04966 -35.16107,-18.46583 -72.36273,-32.71923 -109.8056,-46.79868 36.43085,-4.40138 71.53766,2.3696 107.39917,13.04245 -2.40662,-25.13371 -10.30878,-48.15054 -17.46899,-71.43179 22.55334,22.97544 34.65484,51.46487 43.44042,81.6436 37.93616,16.35922 71.43335,38.39914 98.43866,72.6329 1.93055,-97.02553 -29.1922,-204.537643 -103.70752,-270.6414176 40.50147,12.1526126 73.42371,49.7653736 95.2638,84.3351286 11.87006,18.788669 21.80994,38.891169 29.72333,59.653509 8.51208,22.33293 12.01117,45.12247 17.85962,68.0779 10.96069,-50.74364 13.78283,-123.753504 -35.75672,-194.436159 39.28137,16.32588 65.30499,58.253891 72.04431,99.000989 7.6875,46.47947 6.09015,95.30674 -4.75042,141.13447 -10.19867,43.11405 -28.55622,88.88788 -57.69049,122.81943 -29.20429,34.013 -69.14069,51.95212 -110.28779,67.18521 -50.91851,18.85068 -108.12683,34.27881 -143.79382,77.69037 5.46124,9.15869 12.37695,16.91168 16.21375,26.34271 48.16259,-53.04227 111.59253,-66.77054 178.281,-73.45929 0,6.37824 -10.07617,17.16159 -13.27179,22.98398 -4.78119,8.71146 -9.01904,17.70511 -13.48407,26.57895 -8.22119,16.33893 -17.46637,32.06073 -30.70367,44.88116 -25.42285,24.62201 -58.47632,31.98853 -92.84271,29.01209 -10.58387,17.27954 -5.29938,40.05035 -20.15857,56.18036 4.65771,27.67645 9.42822,55.33404 13.9414,83.03473 4.11335,25.24646 11.66584,52.63452 1.39417,77.237 -9.53137,22.82916 -25.97736,43.6184 -41.44745,62.68762 -16.164,19.92456 -33.24463,39.17309 -51.48718,57.22131 -8.74109,8.64795 -17.7569,17.02063 -27.0691,25.05115 -6.93609,5.98144 -18.09384,18.84979 -27.83847,19.72064 -8.87094,0.79279 -17.7568,-9.31079 -23.9461,-14.38776 -9.91718,-8.13476 -19.5538,-16.60998 -28.89026,-25.40515 -34.24008,-32.255 -69.39856,-70.62756 -91.12756,-112.72656 -13.65509,-26.45605 -9.55988,-51.31451 -4.91935,-79.52197 5.12976,-31.18096 10.49277,-62.32207 15.76032,-93.47985 z m 78.63577,-26.07422 c 4.11798,8.58502 8.22351,17.17597 12.34818,25.75769 3.6019,7.49408 7.72577,14.64014 6.66055,23.24158 -1.02448,8.27252 -5.84485,16.33978 -9.02194,23.96875 -3.64487,8.75195 -7.44876,17.42981 -11.15039,26.1554 -9.99069,23.55035 -7.05289,58.57403 22.20199,64.8222 15.99195,3.41553 32.58966,4.1203 48.84555,2.50604 10.34461,-1.02728 24.08057,-1.7619 32.53687,-8.64496 8.48187,-6.9038 12.28711,-23.53961 12.89374,-33.99688 0.83123,-14.32935 -8.25544,-30.4466 -13.82709,-43.33008 -6.01404,-13.90631 -15.21863,-26.70264 -11.48859,-42.53638 3.18201,-13.50683 12.44147,-26.80762 18.8451,-39.03467 -20.88477,14.87586 -42.38703,28.77863 -54.417,52.21851 -13.33477,-22.35474 -33.66537,-37.00537 -54.42697,-51.1272 z M 764.06458,253.37704 c 4.97851,55.06824 4.23535,108.56125 -19.26685,159.5203 40.18555,-9.76096 82.78192,-37.50058 96.50769,-63.28641 -8.31372,-38.86871 -40.30127,-74.33035 -77.24084,-96.23389 z m -528.85114,-0.18238 c -30.79419,18.34971 -67.72607,53.21336 -74.07849,90.38069 -2.99205,17.50625 24.16263,34.86252 36.7346,43.08807 17.58287,11.50403 37.00717,20.13779 57.08214,26.25299 -23.92546,-51.40429 -23.95813,-104.78937 -19.73825,-159.72175 z m 147.15042,332.32383 c -3.50467,5.06696 -8.51141,8.14588 -8.81961,14.76667 -0.39377,8.45947 1.28809,17.10876 0.81519,25.71905 -0.75379,13.72583 -1.03016,25.38446 13.06488,32.00623 14.44033,6.78405 27.96228,5.34747 34.33444,21.88946 3.12979,8.12476 6.12427,16.30164 9.27264,24.42023 1.41635,3.65228 4.31262,17.82684 8.49585,18.32074 -1.1998,-29.31415 -5.70233,-58.50299 -13.73883,-86.72931 -5.38055,-18.89801 -17.7504,-53.164 -43.42456,-50.39307 z m 235.50357,-0.19085 c -25.2503,-1.6828 -38.05969,31.7832 -43.25421,50.82696 -7.73047,28.34052 -10.98022,57.08692 -14.2926,86.18622 4.41839,-8.46167 8.97119,-16.92895 12.27838,-25.90509 2.47455,-6.71661 3.39209,-14.11182 7.13116,-20.31708 7.638,-12.67535 20.19861,-12.3258 32.2995,-17.552 12.29743,-5.31122 15.70429,-15.72705 14.3136,-28.37799 -1.02978,-9.36829 -0.56225,-16.17902 0.32526,-25.41772 0.78253,-8.14625 -2.79273,-14.17389 -8.80109,-19.4433 z"
           id="path1-6" />
        <path
           d="m 522.08282,773.6181 c -1.82067,2.66748 -0.055,4.86853 -0.78472,7.1164 -13.82291,1.37066 -27.48548,1.09735 -41.75162,0.0502 6.30905,-12.44641 -23.21045,-15.29877 -22.51669,-27.96307 0.95004,-17.3443 29.35748,-0.79798 37.12493,0.16857 7.79273,0.96967 15.35682,-0.42382 22.5918,-3.38287 5.87933,-2.4046 12.27594,-6.16571 18.8877,-4.34235 6.77465,1.86817 10.06903,8.6211 5.58014,14.42078 -4.47547,5.78241 -13.24115,9.79169 -19.13154,13.93231 z"
           id="path2-7" />
        <path
           d="m 417.19589,639.75537 c -26.61969,-4.53021 -36.7951,-11.97021 -36.17859,-26.7251 9.1958,-2.60394 18.1493,-2.50677 26.64075,2.90497 8.89883,5.67139 8.26059,14.89392 9.53784,23.82013 z"
           id="path3-6" />
        <path
           d="m 583.83118,639.15283 c 0.11493,-26.64435 19.78851,-31.55206 36.47674,-25.11914 0.63776,13.48102 -14.51105,24.03931 -36.47674,25.11914 z"
           id="path4-6" />
      </g>
    </g>
  </g>
</svg>
