<?xml version="1.0" encoding="UTF-8" standalone="no"?>
<!-- Created with Inkscape (http://www.inkscape.org/) -->

<svg
   width="60.571205mm"
   height="60.571213mm"
   viewBox="0 0 60.571205 60.571213"
   version="1.1"
   id="svg1"
   inkscape:version="1.3.2 (091e20e, 2023-11-25, custom)"
   sodipodi:docname="foundation.svg"
   xmlns:inkscape="http://www.inkscape.org/namespaces/inkscape"
   xmlns:sodipodi="http://sodipodi.sourceforge.net/DTD/sodipodi-0.dtd"
   xmlns="http://www.w3.org/2000/svg"
   xmlns:svg="http://www.w3.org/2000/svg">
  <sodipodi:namedview
     id="namedview1"
     pagecolor="#ffffff"
     bordercolor="#000000"
     borderopacity="0.25"
     inkscape:showpageshadow="2"
     inkscape:pageopacity="0.0"
     inkscape:pagecheckerboard="0"
     inkscape:deskcolor="#d1d1d1"
     inkscape:document-units="mm"
     inkscape:zoom="1.0520974"
     inkscape:cx="115.00837"
     inkscape:cy="114.53313"
     inkscape:window-width="1720"
     inkscape:window-height="1377"
     inkscape:window-x="-8"
     inkscape:window-y="-8"
     inkscape:window-maximized="0"
     inkscape:current-layer="layer1" />
  <defs
     id="defs1" />
  <g
     inkscape:label="Layer 1"
     inkscape:groupmode="layer"
     id="layer1"
     transform="translate(-74.877082,-118.26875)">
    <g
       id="g3-3-8-6"
       transform="matrix(0.4457982,0,0,0.43526768,81.181199,126.59241)"
       inkscape:label="Foundation"
       style="display:inline">
      <ellipse
         style="fill:#3771c8;stroke-width:0.72763"
         id="path3-9-8-4"
         cx="53.794487"
         cy="50.456184"
         rx="67.935677"
         ry="69.579269"
         inkscape:label="Circle" />
      <g
         id="g1-5-2"
         inkscape:label="Eye"
         transform="matrix(4.6196255,0,0,4.5021878,-3.9508284,-5.8211667)">
        <path
           d="M 12.5,8 A 4.5,4.5 0 1 0 17,12.5 4.50491,4.50491 0 0 0 12.5,8 Z m 0,2 a 2.50263,2.50263 0 0 0 -2.5,2.5 0.5,0.5 0 0 1 -1,0 3.50424,3.50424 0 0 1 3.5,-3.5 0.5,0.5 0 0 1 0,1 z m 12.44727,2.27637 C 24.77832,11.93848 20.71436,4 12.5,4 4.28564,4 0.22168,11.93848 0.05273,12.27637 a 0.50056,0.50056 0 0 0 0,0.44726 C 0.22168,13.06152 4.28564,21 12.5,21 c 8.21436,0 12.27832,-7.93848 12.44727,-8.27637 a 0.50056,0.50056 0 0 0 0,-0.44726 z M 12.5,18 A 5.5,5.5 0 1 1 18,12.5 5.50654,5.50654 0 0 1 12.5,18 Z"
           id="path1-16-6" />
      </g>
    </g>
  </g>
</svg>
